<svg version="1.1" xmlns="http://www.w3.org/2000/svg" viewBox="0 0 1438.757611638438 545.2085019549961" width="1438.757611638438" height="545.2085019549961">
  <!-- svg-source:excalidraw -->
  
  <defs>
    <style class="style-fonts">
      @font-face {
        font-family: "Virgil";
        src: url("https://excalidraw.com/Virgil.woff2");
      }
      @font-face {
        font-family: "Cascadia";
        src: url("https://excalidraw.com/Cascadia.woff2");
      }
      @font-face {
        font-family: "Assistant";
        src: url("https://excalidraw.com/Assistant-Regular.woff2");
      }
    </style>
    
  </defs>
  <g stroke-linecap="round" transform="translate(677.6319905133105 10) rotate(0 130.7600175206499 49.92202941560055)"><path d="M0 0 C56.65 0, 113.3 0, 261.52 0 M0 0 C64.87 0, 129.75 0, 261.52 0 M261.52 0 C261.52 29.47, 261.52 58.94, 261.52 99.84 M261.52 0 C261.52 37.93, 261.52 75.87, 261.52 99.84 M261.52 99.84 C188.11 99.84, 114.69 99.84, 0 99.84 M261.52 99.84 C178.48 99.84, 95.44 99.84, 0 99.84 M0 99.84 C0 70.83, 0 41.82, 0 0 M0 99.84 C0 77.51, 0 55.18, 0 0" stroke="#1e1e1e" stroke-width="2" fill="none"></path></g><g stroke-linecap="round" transform="translate(118.36995292468447 188.26511817738134) rotate(0 144.67930798118712 98.55009849197515)"><path d="M0 0 C103.07 0, 206.14 0, 289.36 0 M0 0 C72.01 0, 144.01 0, 289.36 0 M289.36 0 C289.36 53.98, 289.36 107.95, 289.36 197.1 M289.36 0 C289.36 40.93, 289.36 81.85, 289.36 197.1 M289.36 197.1 C206.1 197.1, 122.84 197.1, 0 197.1 M289.36 197.1 C188.14 197.1, 86.93 197.1, 0 197.1 M0 197.1 C0 155.17, 0 113.24, 0 0 M0 197.1 C0 122.61, 0 48.12, 0 0" stroke="#1e1e1e" stroke-width="2" fill="none"></path></g><g stroke-linecap="round" transform="translate(10.001711237199288 435.364443123795) rotate(0 114.125 49.92202941560055)"><path d="M0 0 C48.44 0, 96.88 0, 228.25 0 M0 0 C85.25 0, 170.5 0, 228.25 0 M228.25 0 C228.25 34, 228.25 68.01, 228.25 99.84 M228.25 0 C228.25 29.85, 228.25 59.7, 228.25 99.84 M228.25 99.84 C171.1 99.84, 113.95 99.84, 0 99.84 M228.25 99.84 C147.94 99.84, 67.63 99.84, 0 99.84 M0 99.84 C0 66.97, 0 34.09, 0 0 M0 99.84 C0 69.93, 0 40.02, 0 0" stroke="#1e1e1e" stroke-width="2" fill="none"></path></g><g stroke-linecap="round" transform="translate(288.2530280690711 435.364443123795) rotate(0 113.7291472864315 49.92202941560055)"><path d="M0 0 C67.71 0, 135.43 0, 227.46 0 M0 0 C89.74 0, 179.47 0, 227.46 0 M227.46 0 C227.46 36.79, 227.46 73.57, 227.46 99.84 M227.46 0 C227.46 30.34, 227.46 60.67, 227.46 99.84 M227.46 99.84 C153.07 99.84, 78.69 99.84, 0 99.84 M227.46 99.84 C153.32 99.84, 79.18 99.84, 0 99.84 M0 99.84 C0 79.01, 0 58.17, 0 0 M0 99.84 C0 78.06, 0 56.28, 0 0" stroke="#1e1e1e" stroke-width="2" fill="none"></path></g><g stroke-linecap="round" transform="translate(457.73034278579917 188.26511817738134) rotate(0 100.21863774105645 98.55009849197515)"><path d="M0 0 C51.96 0, 103.92 0, 200.44 0 M0 0 C42.77 0, 85.54 0, 200.44 0 M200.44 0 C200.44 47.15, 200.44 94.3, 200.44 197.1 M200.44 0 C200.44 64.25, 200.44 128.5, 200.44 197.1 M200.44 197.1 C128.37 197.1, 56.3 197.1, 0 197.1 M200.44 197.1 C149.69 197.1, 98.95 197.1, 0 197.1 M0 197.1 C0 122.58, 0 48.06, 0 0 M0 197.1 C0 144.44, 0 91.77, 0 0" stroke="#1e1e1e" stroke-width="2" fill="none"></path></g><g stroke-linecap="round" transform="translate(708.1676182679121 188.26511817738134) rotate(0 100.21863774105651 98.55009849197515)"><path d="M0 0 C40.49 0, 80.99 0, 200.44 0 M0 0 C67.23 0, 134.46 0, 200.44 0 M200.44 0 C200.44 72.59, 200.44 145.19, 200.44 197.1 M200.44 0 C200.44 78.46, 200.44 156.92, 200.44 197.1 M200.44 197.1 C120.57 197.1, 40.7 197.1, 0 197.1 M200.44 197.1 C126.56 197.1, 52.67 197.1, 0 197.1 M0 197.1 C0 148.2, 0 99.31, 0 0 M0 197.1 C0 126.34, 0 55.58, 0 0" stroke="#1e1e1e" stroke-width="2" fill="none"></path></g><g stroke-linecap="round" transform="translate(958.6031489039643 204.47363688925435) rotate(0 155.38416575362726 82.3380878377555)"><path d="M0 0 C66.77 0, 133.55 0, 310.77 0 M0 0 C107.18 0, 214.35 0, 310.77 0 M310.77 0 C310.77 37.81, 310.77 75.63, 310.77 164.68 M310.77 0 C310.77 58.75, 310.77 117.5, 310.77 164.68 M310.77 164.68 C239.94 164.68, 169.11 164.68, 0 164.68 M310.77 164.68 C237.38 164.68, 163.99 164.68, 0 164.68 M0 164.68 C0 125.49, 0 86.3, 0 0 M0 164.68 C0 121.87, 0 79.07, 0 0" stroke="#1e1e1e" stroke-width="2" fill="none"></path></g><g stroke-linecap="round" transform="translate(1319.3684706300455 236.8923152162193) rotate(0 54.691198324024754 49.92202941560055)"><path d="M0 0 C32.28 0, 64.57 0, 109.38 0 M0 0 C41.56 0, 83.12 0, 109.38 0 M109.38 0 C109.38 28.03, 109.38 56.06, 109.38 99.84 M109.38 0 C109.38 31.7, 109.38 63.41, 109.38 99.84 M109.38 99.84 C77.6 99.84, 45.82 99.84, 0 99.84 M109.38 99.84 C84.92 99.84, 60.45 99.84, 0 99.84 M0 99.84 C0 69.83, 0 39.82, 0 0 M0 99.84 C0 73.38, 0 46.91, 0 0" stroke="#1e1e1e" stroke-width="2" fill="none"></path></g><g stroke-linecap="round"><g transform="translate(677.6283126878736 50.42018395180696) rotate(0 130.75898215969863 0)"><path d="M0 0 C71.62 0, 143.24 0, 261.52 0 M0 0 C54.3 0, 108.61 0, 261.52 0" stroke="#1e1e1e" stroke-width="2" fill="none"></path></g></g><mask></mask><g stroke-linecap="round"><g transform="translate(677.6283126878736 66.42018395180696) rotate(0 130.75898215969863 0)"><path d="M0 0 C89.06 0, 178.12 0, 261.52 0 M0 0 C78.19 0, 156.38 0, 261.52 0" stroke="#1e1e1e" stroke-width="2" fill="none"></path></g></g><mask></mask><g stroke-linecap="round"><g transform="translate(118.37087068499062 228.68221820506085) rotate(0 144.68120295822516 0)"><path d="M0 0 C106.61 0, 213.22 0, 289.36 0 M0 0 C87.92 0, 175.84 0, 289.36 0" stroke="#1e1e1e" stroke-width="2" fill="none"></path></g></g><mask></mask><g stroke-linecap="round"><g transform="translate(118.37087068499062 277.10240551370447) rotate(0 144.68120295822516 0)"><path d="M0 0 C69.22 0, 138.45 0, 289.36 0 M0 0 C94.32 0, 188.64 0, 289.36 0" stroke="#1e1e1e" stroke-width="2" fill="none"></path></g></g><mask></mask><g stroke-linecap="round"><g transform="translate(10 475.7846270756021) rotate(0 114.125 0)"><path d="M0 0 C84.07 0, 168.13 0, 228.25 0 M0 0 C90.86 0, 181.72 0, 228.25 0" stroke="#1e1e1e" stroke-width="2" fill="none"></path></g></g><mask></mask><g stroke-linecap="round"><g transform="translate(10 491.7846270756021) rotate(0 114.125 0)"><path d="M0 0 C52.41 0, 104.82 0, 228.25 0 M0 0 C81.43 0, 162.86 0, 228.25 0" stroke="#1e1e1e" stroke-width="2" fill="none"></path></g></g><mask></mask><g stroke-linecap="round"><g transform="translate(288.24803592039746 475.7846270756021) rotate(0 113.73111136603404 0)"><path d="M0 0 C63.85 0, 127.71 0, 227.46 0 M0 0 C72.23 0, 144.45 0, 227.46 0" stroke="#1e1e1e" stroke-width="2" fill="none"></path></g></g><mask></mask><g stroke-linecap="round"><g transform="translate(288.24803592039746 491.7846270756021) rotate(0 113.73111136603404 0)"><path d="M0 0 C65.45 0, 130.9 0, 227.46 0 M0 0 C79.56 0, 159.13 0, 227.46 0" stroke="#1e1e1e" stroke-width="2" fill="none"></path></g></g><mask></mask><g stroke-linecap="round"><g transform="translate(457.73269335836085 228.68221820506085) rotate(0 100.21732600709845 0)"><path d="M0 0 C50.19 0, 100.37 0, 200.43 0 M0 0 C70.52 0, 141.05 0, 200.43 0" stroke="#1e1e1e" stroke-width="2" fill="none"></path></g></g><mask></mask><g stroke-linecap="round"><g transform="translate(457.73269335836085 244.68221820506085) rotate(0 100.21732600709845 0)"><path d="M0 0 C65.55 0, 131.09 0, 200.43 0 M0 0 C65.33 0, 130.66 0, 200.43 0" stroke="#1e1e1e" stroke-width="2" fill="none"></path></g></g><mask></mask><g stroke-linecap="round"><g transform="translate(708.1699688404738 228.68221820506085) rotate(0 100.21732600709839 0)"><path d="M0 0 C72.07 0, 144.13 0, 200.43 0 M0 0 C50.75 0, 101.49 0, 200.43 0" stroke="#1e1e1e" stroke-width="2" fill="none"></path></g></g><mask></mask><g stroke-linecap="round"><g transform="translate(708.1699688404738 244.68221820506085) rotate(0 100.21732600709839 0)"><path d="M0 0 C79.87 0, 159.74 0, 200.43 0 M0 0 C73.88 0, 147.76 0, 200.43 0" stroke="#1e1e1e" stroke-width="2" fill="none"></path></g></g><mask></mask><g stroke-linecap="round"><g transform="translate(958.6058892981531 244.89231185938263) rotate(0 155.3842090441027 0)"><path d="M0 0 C70.83 0, 141.66 0, 310.77 0 M0 0 C73.39 0, 146.78 0, 310.77 0" stroke="#1e1e1e" stroke-width="2" fill="none"></path></g></g><mask></mask><g stroke-linecap="round"><g transform="translate(958.6058892981531 260.89231185938263) rotate(0 155.3842090441027 0)"><path d="M0 0 C90.3 0, 180.6 0, 310.77 0 M0 0 C69.51 0, 139.03 0, 310.77 0" stroke="#1e1e1e" stroke-width="2" fill="none"></path></g></g><mask></mask><g stroke-linecap="round"><g transform="translate(1319.373313201378 277.31249916802625) rotate(0 54.69214921852995 0)"><path d="M0 0 C23.27 0, 46.54 0, 109.38 0 M0 0 C41.34 0, 82.68 0, 109.38 0" stroke="#1e1e1e" stroke-width="2" fill="none"></path></g></g><mask></mask><g stroke-linecap="round"><g transform="translate(1319.373313201378 293.31249916802625) rotate(0 54.69214921852995 0)"><path d="M0 0 C36.02 0, 72.04 0, 109.38 0 M0 0 C32.77 0, 65.54 0, 109.38 0" stroke="#1e1e1e" stroke-width="2" fill="none"></path></g></g><mask></mask><g mask="url(#mask-wLzxX65wAy47GdI-_zJlu)" stroke-linecap="round"><g transform="translate(677.127 81.7921545362064) rotate(0 -206.78749999999997 52.985000000000014)"><path d="M0 0 C-86.32 22.12, -172.63 44.23, -413.57 105.97 M0 0 C-90.23 23.12, -180.46 46.24, -413.57 105.97" stroke="#1e1e1e" stroke-width="2" fill="none"></path></g><g transform="translate(677.127 81.7921545362064) rotate(0 -206.78749999999997 52.985000000000014)"><path d="M-413.57 105.97 L-401.98 96.45 L-398.83 108.74 L-413.57 105.97" stroke="none" stroke-width="0" fill="#1e1e1e" fill-rule="evenodd"></path><path d="M-413.57 105.97 C-411.15 103.98, -408.73 102, -401.98 96.45 M-413.57 105.97 C-411.05 103.89, -408.52 101.82, -401.98 96.45 M-401.98 96.45 C-401.09 99.92, -400.2 103.39, -398.83 108.74 M-401.98 96.45 C-400.82 100.96, -399.67 105.46, -398.83 108.74 M-398.83 108.74 C-403.63 107.84, -408.42 106.94, -413.57 105.97 M-398.83 108.74 C-403.43 107.87, -408.03 107.01, -413.57 105.97 M-413.57 105.97 C-413.57 105.97, -413.57 105.97, -413.57 105.97 M-413.57 105.97 C-413.57 105.97, -413.57 105.97, -413.57 105.97" stroke="#1e1e1e" stroke-width="2" fill="none"></path></g></g><mask id="mask-wLzxX65wAy47GdI-_zJlu"><rect x="0" y="0" fill="#fff" width="1191.7019999999998" height="288.7621545362064"></rect><rect x="451.6100435000873" y="125.17715453620639" fill="#000" width="37.45891299982541" height="19.2" opacity="1"></rect></mask><g stroke-linecap="round"><g transform="translate(151.736 385.8621545362065) rotate(0 -13.555499999999995 24.5)"><path d="M0 0 C-10.25 18.53, -20.5 37.05, -27.11 49 M0 0 C-7.24 13.09, -14.49 26.18, -27.11 49" stroke="#1e1e1e" stroke-width="2" fill="none"></path></g><g transform="translate(151.736 385.8621545362065) rotate(0 -13.555499999999995 24.5)"><path d="M-27.11 49 L-26.08 34.04 L-14.98 40.17 L-27.11 49" stroke="none" stroke-width="0" fill="#1e1e1e" fill-rule="evenodd"></path><path d="M-27.11 49 C-26.72 43.34, -26.33 37.68, -26.08 34.04 M-27.11 49 C-26.83 45, -26.56 41, -26.08 34.04 M-26.08 34.04 C-23.73 35.33, -21.39 36.63, -14.98 40.17 M-26.08 34.04 C-22.26 36.15, -18.44 38.26, -14.98 40.17 M-14.98 40.17 C-17.52 42.02, -20.06 43.87, -27.11 49 M-14.98 40.17 C-18.49 42.72, -21.99 45.27, -27.11 49 M-27.11 49 C-27.11 49, -27.11 49, -27.11 49 M-27.11 49 C-27.11 49, -27.11 49, -27.11 49" stroke="#1e1e1e" stroke-width="2" fill="none"></path></g></g><mask></mask><g stroke-linecap="round"><g transform="translate(374.36800000000005 385.8621545362065) rotate(0 13.555499999999995 24.5)"><path d="M0 0 C6.73 12.16, 13.45 24.31, 27.11 49 M0 0 C9.73 17.59, 19.47 35.18, 27.11 49" stroke="#1e1e1e" stroke-width="2" fill="none"></path></g><g transform="translate(374.36800000000005 385.8621545362065) rotate(0 13.555499999999995 24.5)"><path d="M27.11 49 L14.98 40.17 L26.08 34.04 L27.11 49" stroke="none" stroke-width="0" fill="#1e1e1e" fill-rule="evenodd"></path><path d="M27.11 49 C24.1 46.81, 21.09 44.62, 14.98 40.17 M27.11 49 C22.76 45.83, 18.4 42.66, 14.98 40.17 M14.98 40.17 C18.93 37.99, 22.89 35.8, 26.08 34.04 M14.98 40.17 C17.87 38.58, 20.76 36.98, 26.08 34.04 M26.08 34.04 C26.41 38.83, 26.74 43.63, 27.11 49 M26.08 34.04 C26.35 38.03, 26.63 42.03, 27.11 49 M27.11 49 C27.11 49, 27.11 49, 27.11 49 M27.11 49 C27.11 49, 27.11 49, 27.11 49" stroke="#1e1e1e" stroke-width="2" fill="none"></path></g></g><mask></mask><g mask="url(#mask-f1g_eN-n4T4-PfcuAg3-F)" stroke-linecap="round"><g transform="translate(677.127 106.9581545362064) rotate(0 -59.338499999999954 40.402000000000015)"><path d="M0 0 C-28.24 19.23, -56.48 38.46, -118.68 80.8 M0 0 C-30.85 21, -61.69 42, -118.68 80.8" stroke="#1e1e1e" stroke-width="2" fill="none"></path></g><g transform="translate(677.127 106.9581545362064) rotate(0 -59.338499999999954 40.402000000000015)"><path d="M-118.68 80.8 L-111.01 67.91 L-103.87 78.39 L-118.68 80.8" stroke="none" stroke-width="0" fill="#1e1e1e" fill-rule="evenodd"></path><path d="M-118.68 80.8 C-116.85 77.74, -115.03 74.67, -111.01 67.91 M-118.68 80.8 C-116.68 77.45, -114.69 74.1, -111.01 67.91 M-111.01 67.91 C-108.89 71.02, -106.78 74.13, -103.87 78.39 M-111.01 67.91 C-108.45 71.67, -105.89 75.43, -103.87 78.39 M-103.87 78.39 C-108.67 79.17, -113.47 79.96, -118.68 80.8 M-103.87 78.39 C-107.46 78.98, -111.06 79.56, -118.68 80.8 M-118.68 80.8 C-118.68 80.8, -118.68 80.8, -118.68 80.8 M-118.68 80.8 C-118.68 80.8, -118.68 80.8, -118.68 80.8" stroke="#1e1e1e" stroke-width="2" fill="none"></path></g></g><mask id="mask-f1g_eN-n4T4-PfcuAg3-F"><rect x="0" y="0" fill="#fff" width="896.8039999999999" height="288.7621545362064"></rect><rect x="585.0177378264885" y="137.76015453620641" fill="#000" width="65.54152434702289" height="19.2" opacity="1"></rect></mask><g mask="url(#mask-5JXMtJD_F13ZyE4HIV90F)" stroke-linecap="round"><g transform="translate(808.3869999999998 110.34215453620641) rotate(0 0 38.71000000000001)"><path d="M0 0 C0 23.27, 0 46.54, 0 77.42 M0 0 C0 20.52, 0 41.05, 0 77.42" stroke="#1e1e1e" stroke-width="2" fill="none"></path></g><g transform="translate(808.3869999999998 110.34215453620641) rotate(0 0 38.71000000000001)"><path d="M0 77.42 L-6.34 63.83 L6.34 63.83 L0 77.42" stroke="none" stroke-width="0" fill="#1e1e1e" fill-rule="evenodd"></path><path d="M0 77.42 C-1.91 73.33, -3.81 69.25, -6.34 63.83 M0 77.42 C-1.68 73.82, -3.36 70.21, -6.34 63.83 M-6.34 63.83 C-3.55 63.83, -0.76 63.83, 6.34 63.83 M-6.34 63.83 C-2.06 63.83, 2.22 63.83, 6.34 63.83 M6.34 63.83 C4.01 68.82, 1.68 73.81, 0 77.42 M6.34 63.83 C3.87 69.13, 1.39 74.43, 0 77.42 M0 77.42 C0 77.42, 0 77.42, 0 77.42 M0 77.42 C0 77.42, 0 77.42, 0 77.42" stroke="#1e1e1e" stroke-width="2" fill="none"></path></g></g><mask id="mask-5JXMtJD_F13ZyE4HIV90F"><rect x="0" y="0" fill="#fff" width="908.3869999999998" height="288.7621545362064"></rect><rect x="775.6162378264885" y="139.45215453620642" fill="#000" width="65.54152434702289" height="19.2" opacity="1"></rect></mask><g mask="url(#mask-EGxVGnhtodHgXCnQFM6LJ)" stroke-linecap="round"><g transform="translate(939.647 98.55815453620642) rotate(0 86.92149999999992 52.708)"><path d="M0 0 C43 26.08, 86.01 52.15, 173.84 105.42 M0 0 C47.57 28.85, 95.15 57.7, 173.84 105.42" stroke="#1e1e1e" stroke-width="2" fill="none"></path></g><g transform="translate(939.647 98.55815453620642) rotate(0 86.92149999999992 52.708)"><path d="M173.84 105.42 L158.93 103.79 L165.51 92.95 L173.84 105.42" stroke="none" stroke-width="0" fill="#1e1e1e" fill-rule="evenodd"></path><path d="M173.84 105.42 C170.15 105.01, 166.47 104.61, 158.93 103.79 M173.84 105.42 C169.76 104.97, 165.68 104.52, 158.93 103.79 M158.93 103.79 C160.57 101.09, 162.2 98.39, 165.51 92.95 M158.93 103.79 C160.39 101.38, 161.86 98.97, 165.51 92.95 M165.51 92.95 C167.24 95.54, 168.97 98.12, 173.84 105.42 M165.51 92.95 C168.33 97.17, 171.15 101.39, 173.84 105.42 M173.84 105.42 C173.84 105.42, 173.84 105.42, 173.84 105.42 M173.84 105.42 C173.84 105.42, 173.84 105.42, 173.84 105.42" stroke="#1e1e1e" stroke-width="2" fill="none"></path></g></g><mask id="mask-EGxVGnhtodHgXCnQFM6LJ"><rect x="0" y="0" fill="#fff" width="1214.49" height="304.9741545362064"></rect><rect x="993.7977378264886" y="141.66615453620636" fill="#000" width="65.54152434702289" height="19.2" opacity="1"></rect></mask><g mask="url(#mask-9fVAl_R49j68R9e5BjYF4)" stroke-linecap="round"><g transform="translate(939.647 81.02315453620645) rotate(0 216.95900000000006 77.68349999999998)"><path d="M0 0 C118.64 42.48, 237.27 84.96, 433.92 155.37 M0 0 C114.37 40.95, 228.75 81.9, 433.92 155.37" stroke="#1e1e1e" stroke-width="2" fill="none"></path></g><g transform="translate(939.647 81.02315453620645) rotate(0 216.95900000000006 77.68349999999998)"><path d="M433.92 155.37 L418.98 156.75 L423.26 144.82 L433.92 155.37" stroke="none" stroke-width="0" fill="#1e1e1e" fill-rule="evenodd"></path><path d="M433.92 155.37 C429.83 155.75, 425.75 156.12, 418.98 156.75 M433.92 155.37 C429.98 155.73, 426.04 156.1, 418.98 156.75 M418.98 156.75 C420.53 152.43, 422.08 148.1, 423.26 144.82 M418.98 156.75 C420.03 153.84, 421.07 150.92, 423.26 144.82 M423.26 144.82 C426.83 148.35, 430.4 151.88, 433.92 155.37 M423.26 144.82 C425.87 147.41, 428.49 150, 433.92 155.37 M433.92 155.37 C433.92 155.37, 433.92 155.37, 433.92 155.37 M433.92 155.37 C433.92 155.37, 433.92 155.37, 433.92 155.37" stroke="#1e1e1e" stroke-width="2" fill="none"></path></g></g><mask id="mask-9fVAl_R49j68R9e5BjYF4"><rect x="0" y="0" fill="#fff" width="1474.565" height="337.3901545362064"></rect><rect x="1123.8352378264885" y="149.1066545362064" fill="#000" width="65.54152434702289" height="19.2" opacity="1"></rect></mask><g transform="translate(780.5937646572065 17.399996643163348) rotate(0 18.729456499912715 9.599999999999994)"><text x="0" y="0" font-family="Cascadia, Segoe UI Emoji" font-size="16px" fill="#1e1e1e" text-anchor="start" style="white-space: pre;" direction="ltr" dominant-baseline="text-before-edge">User</text></g><g transform="translate(685.1283126878735 73.82018395180697) rotate(0 98.31708253030115 9.599999999999994)"><text x="0" y="0" font-family="Cascadia, Segoe UI Emoji" font-size="16px" fill="#1e1e1e" text-anchor="start" style="white-space: pre;" direction="ltr" dominant-baseline="text-before-edge">+interactWithSystem()</text></g><g transform="translate(213.07090487548965 195.6620308964172) rotate(0 32.77076217351146 9.599999999999994)"><text x="0" y="0" font-family="Cascadia, Segoe UI Emoji" font-size="16px" fill="#1e1e1e" text-anchor="start" style="white-space: pre;" direction="ltr" dominant-baseline="text-before-edge">Account</text></g><g transform="translate(125.87087068499062 240.08221820506083) rotate(0 74.90703770425645 9.599999999999994)"><text x="0" y="0" font-family="Cascadia, Segoe UI Emoji" font-size="16px" fill="#1e1e1e" text-anchor="start" style="white-space: pre;" direction="ltr" dominant-baseline="text-before-edge">- balance: float</text></g><g transform="translate(125.87087068499062 284.50240551370445) rotate(0 107.68246124858578 9.599999999999994)"><text x="0" y="0" font-family="Cascadia, Segoe UI Emoji" font-size="16px" fill="#1e1e1e" text-anchor="start" style="white-space: pre;" direction="ltr" dominant-baseline="text-before-edge">+deposit(amount: float)</text></g><g transform="translate(125.87087068499062 316.922592822348) rotate(0 112.36210172247283 9.599999999999994)"><text x="0" y="0" font-family="Cascadia, Segoe UI Emoji" font-size="16px" fill="#1e1e1e" text-anchor="start" style="white-space: pre;" direction="ltr" dominant-baseline="text-before-edge">+withdraw(amount: float)</text></g><g transform="translate(125.87087068499062 349.3427801309916) rotate(0 98.31708253030118 9.599999999999994)"><text x="0" y="0" font-family="Cascadia, Segoe UI Emoji" font-size="16px" fill="#1e1e1e" text-anchor="start" style="white-space: pre;" direction="ltr" dominant-baseline="text-before-edge">+getBalance() : float</text></g><g transform="translate(26.218415281480247 442.7644397669584) rotate(0 65.54741624645644 9.600000000000023)"><text x="0" y="0" font-family="Cascadia, Segoe UI Emoji" font-size="16px" fill="#1e1e1e" text-anchor="start" style="white-space: pre;" direction="ltr" dominant-baseline="text-before-edge">SavingsAccount</text></g><g transform="translate(17.5 499.18462707560207) rotate(0 93.63660821205883 9.600000000000023)"><text x="0" y="0" font-family="Cascadia, Segoe UI Emoji" font-size="16px" fill="#1e1e1e" text-anchor="start" style="white-space: pre;" direction="ltr" dominant-baseline="text-before-edge">+calculateInterest()</text></g><g transform="translate(295.74803592039746 442.7644397669584) rotate(0 70.22593242080211 9.600000000000023)"><text x="0" y="0" font-family="Cascadia, Segoe UI Emoji" font-size="16px" fill="#1e1e1e" text-anchor="start" style="white-space: pre;" direction="ltr" dominant-baseline="text-before-edge">CheckingAccount</text></g><g transform="translate(295.74803592039746 499.18462707560207) rotate(0 74.90703770425648 9.600000000000023)"><text x="0" y="0" font-family="Cascadia, Segoe UI Emoji" font-size="16px" fill="#1e1e1e" text-anchor="start" style="white-space: pre;" direction="ltr" dominant-baseline="text-before-edge">+processChecks()</text></g><g transform="translate(469.76720323657435 195.6620308964172) rotate(0 60.86374469245959 9.599999999999994)"><text x="0" y="0" font-family="Cascadia, Segoe UI Emoji" font-size="16px" fill="#1e1e1e" text-anchor="start" style="white-space: pre;" direction="ltr" dominant-baseline="text-before-edge">OnlineBanking</text></g><g transform="translate(465.23269335836085 252.08221820506083) rotate(0 37.4550656948374 9.599999999999994)"><text x="0" y="0" font-family="Cascadia, Segoe UI Emoji" font-size="16px" fill="#1e1e1e" text-anchor="start" style="white-space: pre;" direction="ltr" dominant-baseline="text-before-edge">+login()</text></g><g transform="translate(465.23269335836085 284.50240551370445) rotate(0 65.54741624645641 9.599999999999994)"><text x="0" y="0" font-family="Cascadia, Segoe UI Emoji" font-size="16px" fill="#1e1e1e" text-anchor="start" style="white-space: pre;" direction="ltr" dominant-baseline="text-before-edge">+viewBalance()</text></g><g transform="translate(465.23269335836085 316.922592822348) rotate(0 74.90703770425648 9.599999999999994)"><text x="0" y="0" font-family="Cascadia, Segoe UI Emoji" font-size="16px" fill="#1e1e1e" text-anchor="start" style="white-space: pre;" direction="ltr" dominant-baseline="text-before-edge">+transferFunds()</text></g><g transform="translate(465.23269335836085 349.3427801309916) rotate(0 51.5 9.599999999999994)"><text x="0" y="0" font-family="Cascadia, Segoe UI Emoji" font-size="16px" fill="#1e1e1e" text-anchor="start" style="white-space: pre;" direction="ltr" dominant-baseline="text-before-edge">+payBills()</text></g><g transform="translate(719.5122948475722 195.6620308964172) rotate(0 60.86374469245959 9.599999999999994)"><text x="0" y="0" font-family="Cascadia, Segoe UI Emoji" font-size="16px" fill="#1e1e1e" text-anchor="start" style="white-space: pre;" direction="ltr" dominant-baseline="text-before-edge">MobileBanking</text></g><g transform="translate(715.6699688404738 252.08221820506083) rotate(0 37.4550656948374 9.599999999999994)"><text x="0" y="0" font-family="Cascadia, Segoe UI Emoji" font-size="16px" fill="#1e1e1e" text-anchor="start" style="white-space: pre;" direction="ltr" dominant-baseline="text-before-edge">+login()</text></g><g transform="translate(715.6699688404738 284.50240551370445) rotate(0 65.54741624645641 9.599999999999994)"><text x="0" y="0" font-family="Cascadia, Segoe UI Emoji" font-size="16px" fill="#1e1e1e" text-anchor="start" style="white-space: pre;" direction="ltr" dominant-baseline="text-before-edge">+viewBalance()</text></g><g transform="translate(715.6699688404738 316.922592822348) rotate(0 74.90703770425642 9.599999999999994)"><text x="0" y="0" font-family="Cascadia, Segoe UI Emoji" font-size="16px" fill="#1e1e1e" text-anchor="start" style="white-space: pre;" direction="ltr" dominant-baseline="text-before-edge">+transferFunds()</text></g><g transform="translate(715.6699688404738 349.3427801309916) rotate(0 70.22593242080217 9.599999999999994)"><text x="0" y="0" font-family="Cascadia, Segoe UI Emoji" font-size="16px" fill="#1e1e1e" text-anchor="start" style="white-space: pre;" direction="ltr" dominant-baseline="text-before-edge">+depositCheck()</text></g><g transform="translate(966.1058892981531 211.872124550739) rotate(0 93.63660821205883 9.599999999999994)"><text x="0" y="0" font-family="Cascadia, Segoe UI Emoji" font-size="16px" fill="#1e1e1e" text-anchor="start" style="white-space: pre;" direction="ltr" dominant-baseline="text-before-edge">AutomatedPhoneSystem</text></g><g transform="translate(966.1058892981531 268.2923118593826) rotate(0 70.22593242080211 9.599999999999994)"><text x="0" y="0" font-family="Cascadia, Segoe UI Emoji" font-size="16px" fill="#1e1e1e" text-anchor="start" style="white-space: pre;" direction="ltr" dominant-baseline="text-before-edge">+authenticate()</text></g><g transform="translate(966.1058892981531 300.7124991680262) rotate(0 70.22593242080211 9.599999999999994)"><text x="0" y="0" font-family="Cascadia, Segoe UI Emoji" font-size="16px" fill="#1e1e1e" text-anchor="start" style="white-space: pre;" direction="ltr" dominant-baseline="text-before-edge">+checkBalance()</text></g><g transform="translate(966.1058892981531 333.13268647666985) rotate(0 74.90703770425648 9.599999999999994)"><text x="0" y="0" font-family="Cascadia, Segoe UI Emoji" font-size="16px" fill="#1e1e1e" text-anchor="start" style="white-space: pre;" direction="ltr" dominant-baseline="text-before-edge">+transferFunds()</text></g><g transform="translate(1326.873313201378 244.2923118593826) rotate(0 32.77076217351146 9.599999999999994)"><text x="0" y="0" font-family="Cascadia, Segoe UI Emoji" font-size="16px" fill="#1e1e1e" text-anchor="start" style="white-space: pre;" direction="ltr" dominant-baseline="text-before-edge">Chatbot</text></g><g transform="translate(1326.873313201378 300.7124991680262) rotate(0 32.77076217351146 9.599999999999994)"><text x="0" y="0" font-family="Cascadia, Segoe UI Emoji" font-size="16px" fill="#1e1e1e" text-anchor="start" style="white-space: pre;" direction="ltr" dominant-baseline="text-before-edge">+chat()</text></g><g transform="translate(451.61004350008716 125.17715453620642) rotate(0 18.729456499912715 9.599999999999994)"><text x="0" y="0" font-family="Cascadia, Segoe UI Emoji" font-size="16px" fill="#1e1e1e" text-anchor="start" style="white-space: pre;" direction="ltr" dominant-baseline="text-before-edge">owns</text></g><g transform="translate(585.0177378264884 137.76015453620641) rotate(0 32.77076217351146 9.599999999999994)"><text x="0" y="0" font-family="Cascadia, Segoe UI Emoji" font-size="16px" fill="#1e1e1e" text-anchor="start" style="white-space: pre;" direction="ltr" dominant-baseline="text-before-edge">chooses</text></g><g transform="translate(775.6162378264883 139.45215453620642) rotate(0 32.77076217351146 9.599999999999994)"><text x="0" y="0" font-family="Cascadia, Segoe UI Emoji" font-size="16px" fill="#1e1e1e" text-anchor="start" style="white-space: pre;" direction="ltr" dominant-baseline="text-before-edge">chooses</text></g><g transform="translate(993.7977378264884 141.66615453620636) rotate(0 32.77076217351146 9.600000000000051)"><text x="0" y="0" font-family="Cascadia, Segoe UI Emoji" font-size="16px" fill="#1e1e1e" text-anchor="start" style="white-space: pre;" direction="ltr" dominant-baseline="text-before-edge">chooses</text></g><g transform="translate(1123.8352378264885 149.1066545362064) rotate(0 32.77076217351146 9.600000000000023)"><text x="0" y="0" font-family="Cascadia, Segoe UI Emoji" font-size="16px" fill="#1e1e1e" text-anchor="start" style="white-space: pre;" direction="ltr" dominant-baseline="text-before-edge">chooses</text></g></svg>